<svg width="36" height="36" viewBox="0 0 36 36" fill="none" xmlns="http://www.w3.org/2000/svg">
<path d="M7.5 31.5H28.5M25.5 31.5V24H27C27.3978 24 27.7794 23.842 28.0607 23.5607C28.342 23.2794 28.5 22.8978 28.5 22.5V19.5C28.5 19.1022 28.342 18.7206 28.0607 18.4393C27.7794 18.158 27.3978 18 27 18H25.5V12C25.5 10.0109 24.7098 8.10322 23.3033 6.6967C21.8968 5.29018 19.9891 4.5 18 4.5C16.0109 4.5 14.1032 5.29018 12.6967 6.6967C11.2902 8.10322 10.5 10.0109 10.5 12V18H9C8.60218 18 8.22064 18.158 7.93934 18.4393C7.65804 18.7206 7.5 19.1022 7.5 19.5V22.5C7.5 22.8978 7.65804 23.2794 7.93934 23.5607C8.22064 23.842 8.60218 24 9 24H10.5V31.5" stroke="#CBD4DC" stroke-width="2" stroke-linecap="round" stroke-linejoin="round"/>
<path d="M9 12H27M15 21C15 21.7956 15.3161 22.5587 15.8787 23.1213C16.4413 23.6839 17.2044 24 18 24C18.7956 24 19.5587 23.6839 20.1213 23.1213C20.6839 22.5587 21 21.7956 21 21C21 20.2044 20.6839 19.4413 20.1213 18.8787C19.5587 18.3161 18.7956 18 18 18C17.2044 18 16.4413 18.3161 15.8787 18.8787C15.3161 19.4413 15 20.2044 15 21Z" stroke="#CBD4DC" stroke-width="2" stroke-linecap="round" stroke-linejoin="round"/>
</svg>
