<svg width="36" height="36" viewBox="0 0 36 36" fill="none" xmlns="http://www.w3.org/2000/svg">
<path d="M13.0125 29.9998C13.9625 29.9998 14.6625 29.7498 15.1125 29.2498C15.5625 28.7498 16.525 28.4998 18 28.4998C19.425 28.4998 20.394 28.7498 20.907 29.2498C21.42 29.7498 22.126 29.9998 23.025 29.9998C23.975 29.9998 24.675 29.7498 25.125 29.2498C25.575 28.7498 26.5375 28.4998 28.0125 28.4998C28.9875 28.4998 29.7125 28.6313 30.1875 28.8943C30.6625 29.1573 31.1125 29.4008 31.5375 29.6248C31.9125 29.8248 32.25 30.0813 32.55 30.3943C32.85 30.7073 33 31.0758 33 31.4998C33 31.9238 32.85 32.2738 32.55 32.5498C32.25 32.8258 31.9 32.9133 31.5 32.8123C30.7 32.6123 30.1 32.3438 29.7 32.0068C29.3 31.6698 28.7375 31.5008 28.0125 31.4998C27.0875 31.4998 26.3875 31.7498 25.9125 32.2498C25.4375 32.7498 24.475 32.9998 23.025 32.9998C21.575 32.9998 20.6065 32.7498 20.1195 32.2498C19.6325 31.7498 18.926 31.4998 18 31.4998C17.05 31.4998 16.35 31.7498 15.9 32.2498C15.45 32.7498 14.4875 32.9998 13.0125 32.9998C11.5375 32.9998 10.575 32.7498 10.125 32.2498C9.67501 31.7498 8.97501 31.4998 8.02501 31.4998C7.30001 31.4998 6.73751 31.6688 6.33751 32.0068C5.93751 32.3448 5.33751 32.6133 4.53751 32.8123C4.13751 32.9123 3.78151 32.8248 3.46951 32.5498C3.15751 32.2748 3.00101 31.9248 3.00001 31.4998C2.99901 31.0748 3.14301 30.7063 3.43201 30.3943C3.72101 30.0823 4.05201 29.8258 4.42501 29.6248C4.85001 29.3998 5.30651 29.1558 5.79451 28.8928C6.28251 28.6298 7.02601 28.4988 8.02501 28.4998C9.50001 28.4998 10.4625 28.7498 10.9125 29.2498C11.3625 29.7498 12.0625 29.9998 13.0125 29.9998ZM13.0125 26.2498C11.5875 26.2498 10.625 25.9998 10.125 25.4998C9.62501 24.9998 8.92501 24.7498 8.02501 24.7498C7.32501 24.7498 6.76251 24.9188 6.33751 25.2568C5.91251 25.5948 5.30001 25.8628 4.50001 26.0608C4.10001 26.1608 3.75001 26.0733 3.45001 25.7983C3.15001 25.5233 3.00001 25.1733 3.00001 24.7483C3.00001 24.3233 3.15001 23.9548 3.45001 23.6428C3.75001 23.3308 4.08751 23.0743 4.46251 22.8733C4.88751 22.6483 5.33751 22.4043 5.81251 22.1413C6.28751 21.8783 7.01251 21.7473 7.9875 21.7483C8.13751 21.7483 8.28751 21.7548 8.43751 21.7678C8.58751 21.7808 8.72501 21.7993 8.85001 21.8233L7.425 16.5733L6.26251 18.0733C6.01251 18.3983 5.68751 18.5918 5.28751 18.6538C4.88751 18.7158 4.52501 18.6098 4.20001 18.3358C3.85001 18.0608 3.65601 17.7168 3.61801 17.3038C3.58001 16.8908 3.69901 16.5223 3.97501 16.1983L13.275 4.68582C13.7 4.18582 14.225 3.85432 14.85 3.69132C15.475 3.52832 16.0875 3.55982 16.6875 3.78582L30.5625 9.07332C30.9375 9.22332 31.2125 9.48582 31.3875 9.86082C31.5625 10.2358 31.575 10.6108 31.425 10.9858C31.275 11.3858 31.0065 11.6673 30.6195 11.8303C30.2325 11.9933 29.8385 11.9993 29.4375 11.8483L27.7125 11.1358L30.75 22.4248C30.9 22.4998 31.0435 22.5748 31.1805 22.6498C31.3175 22.7248 31.449 22.7998 31.575 22.8748C31.95 23.0748 32.281 23.3313 32.568 23.6443C32.855 23.9573 32.999 24.3258 33 24.7498C33.001 25.1738 32.851 25.5238 32.55 25.7998C32.249 26.0758 31.899 26.1633 31.5 26.0623C30.7 25.8623 30.1 25.5938 29.7 25.2568C29.3 24.9198 28.7375 24.7508 28.0125 24.7498C27.0625 24.7498 26.3625 24.9998 25.9125 25.4998C25.4625 25.9998 24.5 26.2498 23.025 26.2498C21.6 26.2498 20.6315 25.9998 20.1195 25.4998C19.6075 24.9998 18.901 24.7498 18 24.7498C17.05 24.7498 16.35 24.9998 15.9 25.4998C15.45 25.9998 14.4875 26.2498 13.0125 26.2498ZM13.0125 23.2498C13.7625 23.2498 14.3435 23.0748 14.7555 22.7248C15.1675 22.3748 15.799 22.0998 16.65 21.8998L15.45 17.5123C15.4 17.3123 15.425 17.1248 15.525 16.9498C15.625 16.7748 15.775 16.6623 15.975 16.6123L20.3625 15.4498C20.5625 15.3998 20.75 15.4248 20.925 15.5248C21.1 15.6248 21.2125 15.7748 21.2625 15.9748L23.175 23.2123C23.95 23.1623 24.5625 22.9313 25.0125 22.5193C25.4625 22.1073 26.275 21.8633 27.45 21.7873L24.225 9.74982L15.6375 6.59982L9.75001 13.6498L12.3375 23.1748C12.4375 23.1998 12.544 23.2188 12.657 23.2318C12.77 23.2448 12.8885 23.2508 13.0125 23.2498Z" fill="#CBD4DC"/>
</svg>
