<svg width="36" height="36" viewBox="0 0 36 36" fill="none" xmlns="http://www.w3.org/2000/svg">
<path d="M15.582 15.8536L13.197 25.8766C13.1497 26.0602 13.1081 26.2453 13.0725 26.4316C12.9245 27.2851 13.0261 28.1633 13.365 28.9606C13.419 29.0896 13.4835 29.2156 13.611 29.4721C13.695 29.6416 13.737 29.7256 13.7565 29.7901C13.7859 29.8909 13.7939 29.9967 13.7798 30.1008C13.7657 30.2048 13.73 30.3048 13.6748 30.3942C13.6197 30.4835 13.5464 30.5603 13.4597 30.6196C13.373 30.6788 13.2748 30.7192 13.1715 30.7381C13.104 30.7501 13.011 30.7501 12.8235 30.7501H6.79201C5.04601 30.7501 4.17301 30.7501 3.72901 30.1771C3.28501 29.6041 3.49651 28.7521 3.91951 27.0481L5.94901 18.8761C6.03887 18.5187 6.04626 18.1455 5.97063 17.7848C5.89499 17.4241 5.73831 17.0854 5.51243 16.7942C5.28655 16.503 4.9974 16.267 4.66686 16.104C4.33631 15.941 3.97303 15.8554 3.60451 15.8536C3.5248 15.8534 3.44591 15.8374 3.37237 15.8067C3.29882 15.776 3.23206 15.731 3.17591 15.6745C3.11975 15.6179 3.07531 15.5508 3.04513 15.477C3.01495 15.4033 2.99961 15.3243 3.00001 15.2446V11.3851C3.00001 7.68756 3.76651 6.91656 7.44001 6.91656H27.252C28.182 6.91656 28.8855 6.69756 29.6445 6.18756C30.531 5.59206 31.6245 4.51056 32.4285 6.01506C33.237 7.52556 33.2805 13.8661 31.9545 15.2011C31.305 15.8551 30.258 15.8551 28.164 15.8551L15.582 15.8536ZM15.582 15.8536H13.362" stroke="#CBD4DC" stroke-width="1.5" stroke-linecap="round" stroke-linejoin="round"/>
<path d="M13.5 21.75H14.8155C16.2405 21.75 16.9545 21.75 17.58 21.615C18.4647 21.4243 19.2947 21.0359 20.008 20.479C20.7213 19.9221 21.2994 19.211 21.699 18.399C21.981 17.8245 22.1535 17.133 22.5 15.75M3 11.25H6.042C7.8465 11.25 8.748 11.25 9.4725 10.8015C10.1985 10.3545 10.602 9.5475 11.4075 7.9335L12 6.75M33 11.25H28.5" stroke="#CBD4DC" stroke-width="1.5" stroke-linecap="round" stroke-linejoin="round"/>
</svg>
