<svg width="36" height="36" viewBox="0 0 36 36" fill="none" xmlns="http://www.w3.org/2000/svg">
<path d="M1.125 21.3765V34.8765" stroke="#CBD4DC" stroke-width="2" stroke-linecap="round" stroke-linejoin="round"/>
<path d="M1.125 32.6265H23.625C23.625 30.1412 21.6103 28.1265 19.125 28.1265H13.5C13.5 25.6412 11.4853 23.6265 9 23.6265H1.125" stroke="#CBD4DC" stroke-width="2" stroke-linecap="round" stroke-linejoin="round"/>
<path d="M9 28.1265H13.5" stroke="#CBD4DC" stroke-width="2" stroke-linecap="round" stroke-linejoin="round"/>
<path fill-rule="evenodd" clip-rule="evenodd" d="M34.875 9C34.875 8.37868 34.3713 7.875 33.75 7.875H28.125V2.25C28.125 1.62868 27.6213 1.125 27 1.125H22.5C21.8787 1.125 21.375 1.62868 21.375 2.25V7.875H15.75C15.1287 7.875 14.625 8.37868 14.625 9V13.5C14.625 14.1213 15.1287 14.625 15.75 14.625H21.375V20.25C21.375 20.8713 21.8787 21.375 22.5 21.375H27C27.6213 21.375 28.125 20.8713 28.125 20.25V14.625H33.75C34.3713 14.625 34.875 14.1213 34.875 13.5V9Z" stroke="#CBD4DC" stroke-width="2" stroke-linecap="round" stroke-linejoin="round"/>
</svg>
