<svg width="36" height="32" viewBox="0 0 36 32" fill="none" xmlns="http://www.w3.org/2000/svg">
<path d="M4.5 8.02344H6.54395C8.14169 8.0235 9.63564 8.7887 10.5645 10.0732L10.7422 10.3379H10.7432L13.0801 14.0186L13.0869 14.0293H15C16.0932 14.0293 16.9764 14.9127 16.9766 16.0059C16.9766 17.0992 16.0933 17.9824 15 17.9824H12C11.3688 17.9824 10.7754 17.6733 10.4033 17.166L10.332 17.0625L9.51953 15.7812L9.47656 15.7129V30C9.47656 31.0933 8.59331 31.9766 7.5 31.9766C6.40669 31.9766 5.52344 31.0933 5.52344 30V21.9766H4.47656V30C4.47656 31.0933 3.59331 31.9766 2.5 31.9766C1.40669 31.9766 0.523438 31.0933 0.523438 30V12C0.523438 9.80669 2.30669 8.02344 4.5 8.02344ZM5 0.0234375C5.69078 0.0234375 6.35704 0.263254 6.88672 0.697266L7.10449 0.895508C7.66271 1.45372 7.97656 2.21057 7.97656 3C7.97656 3.78943 7.66271 4.54628 7.10449 5.10449C6.54628 5.66271 5.78943 5.97656 5 5.97656C4.21057 5.97656 3.45372 5.66271 2.89551 5.10449C2.33729 4.54628 2.02344 3.78943 2.02344 3C2.02344 2.30922 2.26325 1.64296 2.69727 1.11328L2.89551 0.895508C3.45372 0.337294 4.21057 0.0234375 5 0.0234375ZM25 0.0234375C25.6908 0.0234375 26.357 0.263254 26.8867 0.697266L27.1045 0.895508C27.6627 1.45372 27.9766 2.21057 27.9766 3C27.9766 3.78943 27.6627 4.54628 27.1045 5.10449C26.5463 5.66271 25.7894 5.97656 25 5.97656C24.2106 5.97656 23.4537 5.66271 22.8955 5.10449C22.3373 4.54628 22.0234 3.78943 22.0234 3C22.0234 2.30922 22.2633 1.64296 22.6973 1.11328L22.8955 0.895508C23.4537 0.337294 24.2106 0.0234375 25 0.0234375ZM20.5234 10.8799L20.5107 10.873C18.2837 9.70394 16.5443 7.67988 15.7705 5.1709L15.6289 4.66309L15.085 2.48145C14.8362 1.48545 15.3801 0.484594 16.3242 0.144531L16.5186 0.0849609C17.5146 -0.163824 18.5208 0.38559 18.8564 1.3252L18.915 1.51855L19.4648 3.69922C20.0987 6.24092 22.383 8.02344 25 8.02344C27.611 8.02344 29.8903 6.24916 30.5303 3.7168H30.5371L30.541 3.69922L31.085 1.51855C31.3443 0.462516 32.4131 -0.180632 33.4756 0.0849609C34.4718 0.334008 35.0987 1.29473 34.9541 2.28418L34.915 2.48145L34.3711 4.66309C33.6853 7.40638 31.8647 9.62605 29.4893 10.873L29.4766 10.8799V30C29.4766 31.0933 28.5933 31.9766 27.5 31.9766C26.4067 31.9766 25.5234 31.0933 25.5234 30V21.9766H24.4766V30C24.4766 31.0933 23.5933 31.9766 22.5 31.9766C21.4067 31.9766 20.5234 31.0933 20.5234 30V10.8799Z" fill="#CBD4DC" stroke="#CBD4DC" stroke-width="0.046875"/>
</svg>
