<svg width="36" height="36" viewBox="0 0 36 36" fill="none" xmlns="http://www.w3.org/2000/svg">
<path d="M17.9355 2.5293C18.159 2.51495 18.3809 2.57656 18.5654 2.70312L18.6816 2.7959L33.207 16H29.5V30L29.4961 30.0908C29.4767 30.3028 29.3896 30.5038 29.2471 30.6641C29.087 30.8441 28.8676 30.9602 28.6289 30.9912L28.4854 31H7.5L7.40918 30.9961C7.22752 30.9795 7.05407 30.9129 6.90723 30.8047L6.83594 30.7471C6.65588 30.587 6.53882 30.3676 6.50781 30.1289L6.5 29.9854V16H2.79297L17.3271 2.78809C17.4529 2.67365 17.6049 2.59364 17.7686 2.55469L17.9355 2.5293ZM27.5 13.5146L27.3359 13.3652L20.9902 7.5957L21 7.54297L20.9668 7.5752L18.3359 5.18262L18 4.87695L17.6641 5.18262L8.66406 13.3643L8.5 13.5127V29H15.7539L15.9023 28.8398L17.9912 26.5898L18.3311 26.2246L17.9658 25.8848L12.8252 21.0869L19.7568 16.9287L20.374 16.5586L19.8125 16.1094L16.498 13.458L19.5 10.4561L19.0068 13.418L18.959 13.707L19.1875 13.8906L22.4326 16.4863L16.9502 20.5996L16.4512 20.9736L16.9248 21.3799L21.8477 25.5996L20.2012 28.2354L19.7227 29H27.5V13.5146Z" fill="#CBD4DC" stroke="#CBD4DC"/>
</svg>
