<svg width="36" height="36" viewBox="0 0 36 36" fill="none" xmlns="http://www.w3.org/2000/svg">
<path d="M15.012 15L11.145 11.9295C10.695 11.5515 10.47 11.364 10.5225 11.169C10.5735 10.974 10.863 10.923 11.4405 10.824L13.2 10.515C13.8705 10.398 13.9545 10.2255 13.656 9.61503L11.79 5.80503C11.421 5.04903 11.235 4.67103 11.4045 4.51203C11.574 4.35153 11.937 4.56003 12.6645 4.97703L15.801 6.78003C16.341 7.09053 16.395 7.07553 16.674 6.51453L17.94 3.96903C18.27 3.30603 18.435 2.97453 18.654 3.00153C18.8745 3.02853 18.954 3.39153 19.1145 4.11453L20.1345 8.73453C20.2695 9.34053 20.4255 9.42453 20.9955 9.17853L24.399 7.71153C24.9915 7.45653 25.287 7.32903 25.437 7.47603C25.587 7.62303 25.467 7.92453 25.227 8.52603L22.509 15M18.741 15L17.991 12.75M3 19.5H10.1175C11.2695 20.2515 12.2355 20.355 13.4625 20.979C14.985 21.87 15.7095 23.25 15.702 25.5C15.702 27 15.897 28.53 15.423 29.355C14.88 30.3 11.5455 29.997 11.2455 29.997C11.2455 31.65 10.0365 33 8.2455 33C6.6015 33 5.259 31.65 5.259 29.997M10.1175 19.4985C8.5815 18.4965 7.74 16.6305 6.798 15.1185C5.49 12.8685 3.699 12.1485 3.018 12.006M5.259 29.997C5.25978 29.2045 5.57414 28.4445 6.13343 27.8829C6.69271 27.3214 7.45147 27.004 8.244 27C10.035 27 11.244 28.425 11.244 29.997M5.259 29.997H3M25.884 19.4955H33M25.884 19.4955C24.7305 20.2485 23.766 20.3505 22.539 20.976C21.015 21.867 20.292 23.247 20.298 25.4985C20.298 26.9985 20.103 28.5285 20.5785 29.3535C21.1215 30.2985 24.456 29.9955 24.756 29.9955M25.884 19.4955C27.4185 18.492 28.2615 16.626 29.202 15.1155C30.51 12.8655 32.3025 12.144 32.982 12M24.756 29.9955C24.756 31.65 25.965 33 27.756 33C29.3985 33 30.741 31.65 30.741 29.9955M24.756 29.9955C24.756 28.4235 25.965 26.9985 27.756 26.9985C28.5485 27.0025 29.3073 27.3199 29.8666 27.8814C30.4259 28.443 30.7402 29.203 30.741 29.9955M30.741 29.9955H33" stroke="#CBD4DC" stroke-width="1.5" stroke-linecap="round" stroke-linejoin="round"/>
</svg>
