<?xml version="1.0" encoding="UTF-8"?>
<svg version="1.1" xmlns="http://www.w3.org/2000/svg" width="102" height="78">
<path d="M0 0 C5.20912749 4.0153691 9.70167657 8.01395849 11.6640625 14.41015625 C11.62033361 18.45507866 10.70798424 19.91249804 7.94921875 22.80664062 C7.42972656 23.31130859 6.91023438 23.81597656 6.375 24.3359375 C5.87097656 24.85994141 5.36695312 25.38394531 4.84765625 25.92382812 C2.5610723 28.26742663 0.35618735 30.20264593 -2.375 32.0234375 C-2.88121513 34.04620431 -2.88121513 34.04620431 -2.88671875 36.375 C-2.93989258 37.65117188 -2.93989258 37.65117188 -2.99414062 38.953125 C-3.01669922 39.84257813 -3.03925781 40.73203125 -3.0625 41.6484375 C-3.09666016 42.545625 -3.13082031 43.4428125 -3.16601562 44.3671875 C-3.24862402 46.58581288 -3.31772719 48.8040369 -3.375 51.0234375 C-5.3125 51.5859375 -5.3125 51.5859375 -7.375 52.0234375 C-9.11456658 50.28387092 -8.74690386 47.8297753 -8.9375 45.4609375 C-9.02128906 44.44902344 -9.10507813 43.43710937 -9.19140625 42.39453125 C-9.25199219 41.61207031 -9.31257813 40.82960937 -9.375 40.0234375 C-10.6125 41.23 -10.6125 41.23 -11.875 42.4609375 C-26.1470462 54.62821729 -44.21099896 61.17757473 -62.75 61.3359375 C-64.43609375 61.37944336 -64.43609375 61.37944336 -66.15625 61.42382812 C-72.51914224 61.47271559 -76.63250679 61.4680551 -81.375 57.0234375 C-84.27360378 53.42099521 -85.73954469 49.53571189 -85.4375 44.8984375 C-84.46221015 39.84285335 -81.62802188 36.67565355 -77.5 33.6484375 C-72.87178083 32.28719657 -68.91083834 32.47380494 -64.625 34.6484375 C-61.19509893 36.83461319 -59.65315963 39.10907364 -58.375 43.0234375 C-58.6875 45.8984375 -58.6875 45.8984375 -59.375 48.0234375 C-60.695 48.0234375 -62.015 48.0234375 -63.375 48.0234375 C-63.82875 46.8890625 -64.2825 45.7546875 -64.75 44.5859375 C-65.94595806 40.97622058 -65.94595806 40.97622058 -68.375 40.0234375 C-72.99868493 39.52323637 -72.99868493 39.52323637 -77.09765625 41.2578125 C-78.75718358 43.55171572 -78.67239375 44.7353711 -78.375 47.5234375 C-78.313125 48.296875 -78.25125 49.0703125 -78.1875 49.8671875 C-77.50863836 52.19387721 -77.50863836 52.19387721 -75.328125 53.7734375 C-64.51579228 58.35008627 -50.10595116 54.93084061 -39.54541016 50.93164062 C-31.83322923 47.7044963 -24.32705623 43.65814165 -17.375 39.0234375 C-18.39078125 39.06984375 -19.4065625 39.11625 -20.453125 39.1640625 C-35.75059252 39.6509697 -47.3873197 35.6647506 -58.8984375 25.44140625 C-60.64441658 23.76471206 -62.11673795 22.09586912 -63.375 20.0234375 C-63.375 19.3634375 -63.375 18.7034375 -63.375 18.0234375 C-70.635 18.0234375 -77.895 18.0234375 -85.375 18.0234375 C-85.375 13.0234375 -85.375 13.0234375 -84.375 12.0234375 C-82.89440273 11.96332218 -81.41128601 11.96282571 -79.9296875 11.98828125 C-69.79276351 12.4249381 -69.79276351 12.4249381 -60.56640625 9.1796875 C-58.78035081 7.03782247 -58.78035081 7.03782247 -57.55859375 4.73828125 C-57.16800781 4.17238281 -56.77742188 3.60648438 -56.375 3.0234375 C-55.055 3.0234375 -53.735 3.0234375 -52.375 3.0234375 C-51.88 4.5084375 -51.88 4.5084375 -51.375 6.0234375 C-52.035 7.0134375 -52.695 8.0034375 -53.375 9.0234375 C-54.035 9.0234375 -54.695 9.0234375 -55.375 9.0234375 C-56.58128008 11.35557898 -57.5404738 13.51985889 -58.375 16.0234375 C-53.0738436 24.61310786 -44.78999027 29.19826352 -35.23828125 31.5234375 C-24.10546784 33.46750314 -14.25118582 31.81713468 -4.75390625 25.73828125 C0.51118515 21.95260631 0.51118515 21.95260631 4.625 17.0234375 C4.1976026 12.26631862 1.08292925 9.0556747 -2.375 6.0234375 C-15.57685114 -2.20896684 -26.40447724 -2.17162041 -41.375 -0.9765625 C-41.87 -2.4615625 -41.87 -2.4615625 -42.375 -3.9765625 C-32.85929928 -14.91961832 -9.71205248 -6.53908079 0 0 Z " fill="#000000" transform="translate(85.375,16.9765625)"/>
<path d="M0 0 C1.155 -0.01998047 2.31 -0.03996094 3.5 -0.06054688 C17.66394048 -0.05255368 29.30391136 5.45074603 39.75 14.9375 C42.94700464 18.30236646 43.53141516 20.851843 43.625 25.4375 C40.7218635 25.09682582 39.06287558 24.85830245 36.921875 22.80078125 C36.41140625 22.12402344 35.9009375 21.44726562 35.375 20.75 C28.50051452 12.48583358 19.10921229 7.27744963 8.32666016 6.20996094 C-6.49354206 5.2875056 -18.33232974 7.2939911 -30.375 16.4375 C-31.303125 17.118125 -32.23125 17.79875 -33.1875 18.5 C-35.50481191 20.35087429 -35.50481191 20.35087429 -36.90234375 23.0390625 C-39.68494942 25.73814604 -40.22972736 25.80001736 -43.921875 25.92578125 C-45.65692356 25.89266964 -47.39163171 25.83321192 -49.125 25.75 C-50.01316406 25.72744141 -50.90132812 25.70488281 -51.81640625 25.68164062 C-54.00432812 25.62282552 -56.18879671 25.54071268 -58.375 25.4375 C-58.417721 23.77138095 -58.41563832 22.10367115 -58.375 20.4375 C-58.045 20.1075 -57.715 19.7775 -57.375 19.4375 C-55.60171831 19.4375 -53.82841015 19.43943841 -52.05517578 19.45239258 C-44.96750587 19.4441459 -44.96750587 19.4441459 -38.6640625 16.58203125 C-37.21696307 15.02261183 -35.81005428 13.42495084 -34.4453125 11.79296875 C-25.56118955 1.68518358 -12.66722973 -0.07723921 0 0 Z " fill="#000000" transform="translate(58.375,-0.4375)"/>
<path d="M0 0 C4.85330974 3.45331655 7.22290472 6.83708475 8.25 12.6875 C8.59646889 17.70707367 7.19766509 21.28577894 4.25 25.3125 C0.39140894 29.36201093 -3.31925745 31.4289614 -8.9375 31.6875 C-14.25908341 31.60949633 -17.80807751 29.82730673 -21.75 26.3125 C-25.43717994 22.12677179 -26.35615895 17.95452007 -26.06640625 12.44921875 C-25.34496333 7.57725239 -23.3824134 4.91741716 -19.875 1.5625 C-13.24543057 -3.21078999 -7.32499934 -3.75681297 0 0 Z M-18.5625 8 C-20.30441178 11.392144 -20.30054353 14.62018804 -19.75 18.3125 C-18.11312815 21.89802881 -17.06027417 23.10565055 -13.75 25.3125 C-10.01114942 25.98905391 -6.37222418 26.03460807 -2.86328125 24.47265625 C0.21938907 22.25582069 1.64931324 20.0120558 2.3125 16.375 C2.51882352 12.3249458 1.59616999 9.67534365 -0.75 6.3125 C-3.50368606 4.07978157 -5.23258624 3.37717672 -8.75 2.9375 C-13.0308452 3.47260565 -15.44771524 5.10002798 -18.5625 8 Z " fill="#000000" transform="translate(67.75,17.6875)"/>
<path d="M0 0 C1.32 0.66 2.64 1.32 4 2 C3.67 3.32 3.34 4.64 3 6 C1.68 5.67 0.36 5.34 -1 5 C-1 1 -1 1 0 0 Z " fill="#000000" transform="translate(37,14)"/>
<path d="" fill="#000000" transform="translate(0,0)"/>
<path d="M0 0 C2 1 2 1 2 1 Z " fill="#000000" transform="translate(33,19)"/>
<path d="" fill="#000000" transform="translate(0,0)"/>
<path d="" fill="#000000" transform="translate(0,0)"/>
<path d="" fill="#000000" transform="translate(0,0)"/>
<path d="" fill="#000000" transform="translate(0,0)"/>
<path d="" fill="#000000" transform="translate(0,0)"/>
<path d="" fill="#000000" transform="translate(0,0)"/>
<path d="" fill="#000000" transform="translate(0,0)"/>
<path d="" fill="#000000" transform="translate(0,0)"/>
<path d="" fill="#000000" transform="translate(0,0)"/>
<path d="" fill="#000000" transform="translate(0,0)"/>
<path d="" fill="#000000" transform="translate(0,0)"/>
<path d="" fill="#000000" transform="translate(0,0)"/>
<path d="" fill="#000000" transform="translate(0,0)"/>
<path d="" fill="#000000" transform="translate(0,0)"/>
<path d="" fill="#000000" transform="translate(0,0)"/>
<path d="" fill="#000000" transform="translate(0,0)"/>
<path d="" fill="#000000" transform="translate(0,0)"/>
<path d="" fill="#000000" transform="translate(0,0)"/>
<path d="" fill="#000000" transform="translate(0,0)"/>
<path d="" fill="#000000" transform="translate(0,0)"/>
<path d="" fill="#000000" transform="translate(0,0)"/>
<path d="" fill="#000000" transform="translate(0,0)"/>
<path d="" fill="#000000" transform="translate(0,0)"/>
<path d="" fill="#000000" transform="translate(0,0)"/>
<path d="" fill="#000000" transform="translate(0,0)"/>
<path d="" fill="#000000" transform="translate(0,0)"/>
<path d="" fill="#000000" transform="translate(0,0)"/>
<path d="" fill="#000000" transform="translate(0,0)"/>
<path d="" fill="#000000" transform="translate(0,0)"/>
<path d="" fill="#000000" transform="translate(0,0)"/>
<path d="" fill="#000000" transform="translate(0,0)"/>
<path d="" fill="#000000" transform="translate(0,0)"/>
<path d="" fill="#000000" transform="translate(0,0)"/>
<path d="" fill="#000000" transform="translate(0,0)"/>
<path d="" fill="#000000" transform="translate(0,0)"/>
<path d="" fill="#000000" transform="translate(0,0)"/>
<path d="" fill="#000000" transform="translate(0,0)"/>
<path d="" fill="#000000" transform="translate(0,0)"/>
<path d="" fill="#000000" transform="translate(0,0)"/>
<path d="" fill="#000000" transform="translate(0,0)"/>
<path d="" fill="#000000" transform="translate(0,0)"/>
<path d="" fill="#000000" transform="translate(0,0)"/>
<path d="" fill="#000000" transform="translate(0,0)"/>
<path d="" fill="#000000" transform="translate(0,0)"/>
<path d="" fill="#000000" transform="translate(0,0)"/>
<path d="" fill="#000000" transform="translate(0,0)"/>
<path d="" fill="#000000" transform="translate(0,0)"/>
<path d="" fill="#000000" transform="translate(0,0)"/>
<path d="" fill="#000000" transform="translate(0,0)"/>
<path d="" fill="#000000" transform="translate(0,0)"/>
<path d="" fill="#000000" transform="translate(0,0)"/>
<path d="" fill="#000000" transform="translate(0,0)"/>
<path d="" fill="#000000" transform="translate(0,0)"/>
<path d="" fill="#000000" transform="translate(0,0)"/>
<path d="" fill="#000000" transform="translate(0,0)"/>
<path d="" fill="#000000" transform="translate(0,0)"/>
<path d="" fill="#000000" transform="translate(0,0)"/>
<path d="" fill="#000000" transform="translate(0,0)"/>
<path d="" fill="#000000" transform="translate(0,0)"/>
<path d="" fill="#000000" transform="translate(0,0)"/>
<path d="" fill="#000000" transform="translate(0,0)"/>
<path d="" fill="#000000" transform="translate(0,0)"/>
<path d="" fill="#000000" transform="translate(0,0)"/>
<path d="" fill="#000000" transform="translate(0,0)"/>
<path d="" fill="#000000" transform="translate(0,0)"/>
<path d="" fill="#000000" transform="translate(0,0)"/>
<path d="" fill="#000000" transform="translate(0,0)"/>
<path d="" fill="#000000" transform="translate(0,0)"/>
<path d="" fill="#000000" transform="translate(0,0)"/>
<path d="" fill="#000000" transform="translate(0,0)"/>
<path d="" fill="#000000" transform="translate(0,0)"/>
<path d="" fill="#000000" transform="translate(0,0)"/>
<path d="" fill="#000000" transform="translate(0,0)"/>
<path d="" fill="#000000" transform="translate(0,0)"/>
<path d="" fill="#000000" transform="translate(0,0)"/>
<path d="" fill="#000000" transform="translate(0,0)"/>
<path d="" fill="#000000" transform="translate(0,0)"/>
<path d="" fill="#000000" transform="translate(0,0)"/>
<path d="" fill="#000000" transform="translate(0,0)"/>
<path d="" fill="#000000" transform="translate(0,0)"/>
<path d="" fill="#000000" transform="translate(0,0)"/>
<path d="" fill="#000000" transform="translate(0,0)"/>
<path d="" fill="#000000" transform="translate(0,0)"/>
<path d="" fill="#000000" transform="translate(0,0)"/>
<path d="" fill="#000000" transform="translate(0,0)"/>
<path d="" fill="#000000" transform="translate(0,0)"/>
<path d="" fill="#000000" transform="translate(0,0)"/>
<path d="" fill="#000000" transform="translate(0,0)"/>
<path d="" fill="#000000" transform="translate(0,0)"/>
<path d="" fill="#000000" transform="translate(0,0)"/>
<path d="" fill="#000000" transform="translate(0,0)"/>
<path d="" fill="#000000" transform="translate(0,0)"/>
<path d="" fill="#000000" transform="translate(0,0)"/>
<path d="" fill="#000000" transform="translate(0,0)"/>
<path d="" fill="#000000" transform="translate(0,0)"/>
<path d="" fill="#000000" transform="translate(0,0)"/>
<path d="" fill="#000000" transform="translate(0,0)"/>
<path d="" fill="#000000" transform="translate(0,0)"/>
<path d="" fill="#000000" transform="translate(0,0)"/>
<path d="" fill="#000000" transform="translate(0,0)"/>
<path d="" fill="#000000" transform="translate(0,0)"/>
<path d="" fill="#000000" transform="translate(0,0)"/>
<path d="" fill="#000000" transform="translate(0,0)"/>
<path d="" fill="#000000" transform="translate(0,0)"/>
<path d="" fill="#000000" transform="translate(0,0)"/>
<path d="" fill="#000000" transform="translate(0,0)"/>
<path d="" fill="#000000" transform="translate(0,0)"/>
<path d="" fill="#000000" transform="translate(0,0)"/>
<path d="" fill="#000000" transform="translate(0,0)"/>
<path d="" fill="#000000" transform="translate(0,0)"/>
<path d="" fill="#000000" transform="translate(0,0)"/>
<path d="" fill="#000000" transform="translate(0,0)"/>
<path d="" fill="#000000" transform="translate(0,0)"/>
<path d="" fill="#000000" transform="translate(0,0)"/>
<path d="" fill="#000000" transform="translate(0,0)"/>
<path d="" fill="#000000" transform="translate(0,0)"/>
<path d="" fill="#000000" transform="translate(0,0)"/>
<path d="" fill="#000000" transform="translate(0,0)"/>
<path d="" fill="#000000" transform="translate(0,0)"/>
<path d="" fill="#000000" transform="translate(0,0)"/>
<path d="" fill="#000000" transform="translate(0,0)"/>
<path d="" fill="#000000" transform="translate(0,0)"/>
<path d="" fill="#000000" transform="translate(0,0)"/>
<path d="" fill="#000000" transform="translate(0,0)"/>
<path d="" fill="#000000" transform="translate(0,0)"/>
<path d="" fill="#000000" transform="translate(0,0)"/>
<path d="" fill="#000000" transform="translate(0,0)"/>
<path d="" fill="#000000" transform="translate(0,0)"/>
<path d="" fill="#000000" transform="translate(0,0)"/>
<path d="" fill="#000000" transform="translate(0,0)"/>
</svg>
