<?xml version="1.0" encoding="UTF-8"?>
<svg version="1.1" xmlns="http://www.w3.org/2000/svg" width="132" height="132">
<path d="M0 0 C2.375 0.1875 2.375 0.1875 5 1 C7.64891512 6.1526842 7.68900306 11.33750359 7 17 C6.10376401 19.29121419 5.08570129 21.26447471 3.77734375 23.34375 C2.67964483 25.18782581 2.67964483 25.18782581 4 28 C3.67 28.66 3.34 29.32 3 30 C2.34 30 1.68 30 1 30 C0.67 31.65 0.34 33.3 0 35 C-1.32 35 -2.64 35 -4 35 C-3.60246179 36.46366342 -3.18118616 37.9208935 -2.75 39.375 C-2.40195313 40.59316406 -2.40195313 40.59316406 -2.046875 41.8359375 C-1.15425753 44.1277231 -1.15425753 44.1277231 0.953125 45.375 C1.62859375 45.58125 2.3040625 45.7875 3 46 C5.53673288 44.6446674 5.53673288 44.6446674 8 43 C9.32 43 10.64 43 12 43 C13.39735818 40.84575944 13.39735818 40.84575944 14 38 C12.70672372 35.97386717 11.3703055 33.97485205 10 32 C9.69355845 28.81300783 9.56695936 26.86608129 11 24 C12.32 24 13.64 24 15 24 C16.35439668 26.70879335 16.06501451 29.00933268 16 32 C16.78375 32.144375 17.5675 32.28875 18.375 32.4375 C21 33 21 33 23 34 C25.22624593 33.6808377 25.22624593 33.6808377 27.625 33.0625 C28.44226563 32.86785156 29.25953125 32.67320313 30.1015625 32.47265625 C31.04128906 32.23869141 31.04128906 32.23869141 32 32 C31.979375 31.05125 31.95875 30.1025 31.9375 29.125 C32 26 32 26 33 24 C34.32 24 35.64 24 37 24 C38.3899408 26.7798816 38.18488204 28.9186326 38 32 C36.96101255 34.67168202 36.04325521 35.95674479 34 38 C34.99 40.475 34.99 40.475 36 43 C37.6396875 43.185625 37.6396875 43.185625 39.3125 43.375 C43 44 43 44 46 46 C49.8665284 42.777893 50.88059018 39.85077588 52 35 C50.35 34.67 48.7 34.34 47 34 C47 32.68 47 31.36 47 30 C46.34 30 45.68 30 45 30 C44.87882812 29.39671875 44.75765625 28.7934375 44.6328125 28.171875 C44.46523437 27.37265625 44.29765625 26.5734375 44.125 25.75 C43.96257812 24.96109375 43.80015625 24.1721875 43.6328125 23.359375 C43.09671412 21.00012804 43.09671412 21.00012804 41.9453125 19.0390625 C39.61320588 14.00865071 40.59467802 7.4946248 42 2.3125 C42.33 1.549375 42.66 0.78625 43 0 C44.65 0 46.3 0 48 0 C47.67 4.95 47.34 9.9 47 15 C48.65 15.66 50.3 16.32 52 17 C52 19 52 21 52 23 C53.04953641 24.77238277 53.04953641 24.77238277 54.4375 26.5 C58.18252595 31.36533286 58.75028103 35.9874739 58 42 C55.89215646 46.06512683 53.67742989 48.37326436 50 51 C50 51.66 50 52.32 50 53 C51.76428345 52.99214478 51.76428345 52.99214478 53.56420898 52.98413086 C57.91202031 52.96608337 62.2598283 52.95456892 66.60766602 52.94506836 C68.4924373 52.94002756 70.37720465 52.93319502 72.26196289 52.92456055 C74.96501636 52.91248383 77.66801831 52.90676932 80.37109375 52.90234375 C81.21900986 52.89718246 82.06692596 52.89202118 82.9405365 52.88670349 C84.96071068 52.88650805 86.98077934 52.93793789 89 53 C91.07956648 55.07956648 90.27675568 59.27498635 90.3125 62.125 C90.34150391 62.87265625 90.37050781 63.6203125 90.40039062 64.390625 C90.47577614 71.04774568 88.49871269 74.75540292 84.4296875 80.0390625 C77.20452265 87.40945679 69.06640573 90.93364194 58.765625 91.1328125 C57.26041671 91.13543939 55.75519066 91.13274541 54.25 91.125 C53.09951172 91.13080078 53.09951172 91.13080078 51.92578125 91.13671875 C46.25349978 91.12674989 46.25349978 91.12674989 44 90 C43.21766602 92.27959265 43.21766602 92.27959265 43 95 C44.2078306 97.35387708 44.2078306 97.35387708 46 99.5 C48.98554938 103.28525011 48.98554938 103.28525011 49.05078125 106.51171875 C47.56087132 110.03986978 45.35680202 111.21623857 42.1875 113.3125 C36.91520824 116.9629638 34.31344662 120.00607013 32 126 C29.33177541 128.66822459 27.84488779 128.36019182 24.125 128.4375 C18.40393681 128.33497199 18.40393681 128.33497199 15.4375 125.875 C14.49427385 123.98854771 13.61107646 122.07062427 12.796875 120.125 C10.7096668 116.49507269 8.18481894 114.46059898 4.8125 112.125 C4.25369141 111.7228125 3.69488281 111.320625 3.11914062 110.90625 C1.75411421 109.92623104 0.37813892 108.96149227 -1 108 C-0.28741668 103.30192158 1.54574121 100.15775503 4.0390625 96.18359375 C5.1658888 93.6230413 4.96772222 92.5708765 4 90 C3.01 90.495 3.01 90.495 2 91 C-0.72046244 91.12578482 -3.40424944 91.18518644 -6.125 91.1875 C-7.22714844 91.20586914 -7.22714844 91.20586914 -8.3515625 91.22460938 C-18.34457217 91.25099937 -27.23519506 88.59594437 -34.53515625 81.5546875 C-40.57795965 74.98517382 -42.16923071 71.30960344 -42.125 62.375 C-42.12886719 61.58609375 -42.13273437 60.7971875 -42.13671875 59.984375 C-42.12665394 54.12665394 -42.12665394 54.12665394 -41 53 C-38.1156618 52.91134792 -35.25537842 52.88478704 -32.37109375 52.90234375 C-31.07474754 52.90446617 -31.07474754 52.90446617 -29.75221252 52.90663147 C-26.98060708 52.91224761 -24.2090812 52.92480281 -21.4375 52.9375 C-19.5631522 52.94251292 -17.68880315 52.94707619 -15.81445312 52.95117188 C-11.20960456 52.96222228 -6.60481579 52.9794977 -2 53 C-3.72654305 49.22569659 -6.02796727 46.89582677 -9 44 C-10.75818114 40.48363773 -10.54736438 36.83750028 -10 33 C-8.17670693 28.66627729 -5.59923336 24.89885005 -3 21 C-3.30840599 18.84725052 -3.30840599 18.84725052 -4 17 C-2.35 16.34 -0.7 15.68 1 15 C1.10662326 9.88208358 0.71167986 5.07071901 0 0 Z M18 43 C21.96 43 25.92 43 30 43 C27.3453416 39.73140098 27.3453416 39.73140098 24 39.625 C20.6546584 39.73140098 20.6546584 39.73140098 18 43 Z M5 51 C3.61773984 53.76452033 3.90474613 56.0461363 3.9375 59.125 C3.94652344 60.22070312 3.95554688 61.31640625 3.96484375 62.4453125 C3.97644531 63.28835937 3.98804688 64.13140625 4 65 C6.64 65 9.28 65 12 65 C12.33 66.65 12.66 68.3 13 70 C11.02 70.33 9.04 70.66 7 71 C6.45691431 83.44343693 6.45691431 83.44343693 11.8125 94.375 C16.37111233 97.76139773 21.47225494 98.33667059 27 99 C27.33 100.65 27.66 102.3 28 104 C14.18223235 102.25740319 14.18223235 102.25740319 9 99 C7.68 101.31 6.36 103.62 5 106 C7.97 108.31 10.94 110.62 14 113 C14.639375 112.34 15.27875 111.68 15.9375 111 C19.9701604 108.36642586 23.29266614 108.27579479 28 109 C30.59527118 110.08332554 31.99150485 110.99150485 34 113 C36.97 110.69 39.94 108.38 43 106 C41.68 103.69 40.36 101.38 39 99 C38.13375 99.495 38.13375 99.495 37.25 100 C35 101 35 101 31 101 C31 99.68 31 98.36 31 97 C32.97946592 95.63636792 34.9819245 94.30581356 37 93 C40.76001533 87.81377195 41.12558424 83.55842443 41.0625 77.25 C41.05347656 76.07953125 41.04445312 74.9090625 41.03515625 73.703125 C41.02355469 72.81109375 41.01195312 71.9190625 41 71 C36.44468133 70.76024639 33.81098525 70.62454386 29.625 72.5625 C24.80323638 74.47457868 21.02430338 73.83906877 16 73 C16.66 71.35 17.32 69.7 18 68 C18.62648438 68.08378906 19.25296875 68.16757813 19.8984375 68.25390625 C20.71570313 68.35574219 21.53296875 68.45757812 22.375 68.5625 C23.18710938 68.66691406 23.99921875 68.77132812 24.8359375 68.87890625 C27.04899186 69.18237328 27.04899186 69.18237328 29 68 C29 67.34 29 66.68 29 66 C34.05002222 64.96409801 38.87416389 64.89748328 44 65 C44.08133791 63.08404032 44.13934367 61.16708068 44.1875 59.25 C44.22230469 58.18265625 44.25710937 57.1153125 44.29296875 56.015625 C43.96625336 52.65263456 43.36910987 51.36358747 41 49 C35.59562705 47.19854235 29.78031834 47.77264392 24.125 47.75 C22.84496094 47.729375 21.56492187 47.70875 20.24609375 47.6875 C19.01246094 47.68234375 17.77882813 47.6771875 16.5078125 47.671875 C14.81615967 47.65785645 14.81615967 47.65785645 13.09033203 47.64355469 C9.63774836 48.04178286 7.77067146 48.93784226 5 51 Z M-25 59 C-22.53844835 65.15387913 -19.71319513 68.3818922 -13.59765625 71.046875 C-8.27349732 72.78604556 -3.57744285 73.30985794 2 73 C2 72.34 2 71.68 2 71 C1.525625 70.62875 1.05125 70.2575 0.5625 69.875 C-1 68 -1 68 -2 60 C-13.385 59.505 -13.385 59.505 -25 59 Z M-37 60 C-36.67 60.66 -36.34 61.32 -36 62 C-35.34 61.34 -34.68 60.68 -34 60 C-34.99 60 -35.98 60 -37 60 Z M72 59 C61.11 59.495 61.11 59.495 50 60 C49.34 63.3 48.68 66.6 48 70 C47.01 70.495 47.01 70.495 46 71 C46 71.66 46 72.32 46 73 C58.54804077 72.66737022 58.54804077 72.66737022 68.81640625 66.1796875 C70.28454261 64.49695116 71.67022681 62.793179 73 61 C72.67 60.34 72.34 59.68 72 59 Z M82 60 C83.485 60.99 83.485 60.99 85 62 C85 61.34 85 60.68 85 60 C84.01 60 83.02 60 82 60 Z M-36 69 C-35.34 69.66 -34.68 70.32 -34 71 C-32.68 69.35 -31.36 67.7 -30 66 C-32.76223278 66 -33.89281454 67.31425163 -36 69 Z M78 66 C79.65 67.65 81.3 69.3 83 71 C83.33 70.01 83.66 69.02 84 68 C82.02 67.34 80.04 66.68 78 66 Z M-26 70 C-27.57840572 71.55705194 -27.57840572 71.55705194 -29.125 73.5 C-29.66382813 74.1496875 -30.20265625 74.799375 -30.7578125 75.46875 C-31.16773438 75.9740625 -31.57765625 76.479375 -32 77 C-30.02 77.99 -30.02 77.99 -28 79 C-26.68 76.03 -25.36 73.06 -24 70 C-24.66 70 -25.32 70 -26 70 Z M72 70 C73.32 72.97 74.64 75.94 76 79 C77.32 78.34 78.64 77.68 80 77 C79.04882866 75.8274869 78.08882991 74.66212985 77.125 73.5 C76.59132813 72.8503125 76.05765625 72.200625 75.5078125 71.53125 C75.01023437 71.0259375 74.51265625 70.520625 74 70 C73.34 70 72.68 70 72 70 Z M-21 75 C-22.485 78.465 -22.485 78.465 -24 82 C-23.01 82.33 -22.02 82.66 -21 83 C-20.67 80.36 -20.34 77.72 -20 75 C-20.33 75 -20.66 75 -21 75 Z M68 75 C68.33 77.64 68.66 80.28 69 83 C69.99 82.67 70.98 82.34 72 82 C70.92598892 79.08482708 70.22189824 77.22189824 68 75 Z M-15 76 C-14 78 -14 78 -14 78 Z M62 76 C62 78.64 62 81.28 62 84 C62.66 84 63.32 84 64 84 C63.67 81.36 63.34 78.72 63 76 C62.67 76 62.34 76 62 76 Z M-1 78 C-0.34 79.98 0.32 81.96 1 84 C1.33 84 1.66 84 2 84 C2 82.02 2 80.04 2 78 C1.01 78 0.02 78 -1 78 Z M46 78 C46 79.98 46 81.96 46 84 C46.66 83.67 47.32 83.34 48 83 C48 81.35 48 79.7 48 78 C47.34 78 46.68 78 46 78 Z M-15 79 C-15.33 80.65 -15.66 82.3 -16 84 C-15.34 84 -14.68 84 -14 84 C-14 82.35 -14 80.7 -14 79 C-14.33 79 -14.66 79 -15 79 Z M-7 80 C-7 81.32 -7 82.64 -7 84 C-6.34 83.67 -5.68 83.34 -5 83 C-5.66 82.01 -6.32 81.02 -7 80 Z M54 80 C53.67 81.32 53.34 82.64 53 84 C53.66 84 54.32 84 55 84 C54.67 82.68 54.34 81.36 54 80 Z M20.0625 114.0625 C18.50045638 116.91093248 19.25078976 118.93504903 20 122 C22.97 122.495 22.97 122.495 26 123 C27.66846734 121.30504044 27.66846734 121.30504044 29 119 C28.77802187 116.3015411 28.77802187 116.3015411 28 114 C23.92299075 112.87562307 23.92299075 112.87562307 20.0625 114.0625 Z " fill="#000000" transform="translate(42,4)"/>
<path d="M0 0 C2 2 2 2 2 6 C1.34 6.66 0.68 7.32 0 8 C0.33 8.33 0.66 8.66 1 9 C1.66 8.01 2.32 7.02 3 6 C4.875 6.125 4.875 6.125 7 7 C8.99829409 10.90143131 9.42729128 14.56168944 8.7421875 18.90625 C7.06638237 23.63378448 3.26350601 27.62318237 -0.984375 30.20703125 C-5.23645809 31.87984688 -9.48364445 31.61376296 -13.625 29.9375 C-17.99602877 26.37166074 -22.02885424 22.83274227 -23.0625 17.0625 C-23.3654961 11.04919282 -21.2992442 6.68550599 -17.6875 2 C-12.86867748 -1.64170557 -5.67768126 -0.69151246 0 0 Z M-16 9 C-15 11 -15 11 -15 11 Z M-17 11 C-17 13.64 -17 16.28 -17 19 C-16.67 19 -16.34 19 -16 19 C-16 16.36 -16 13.72 -16 11 C-16.33 11 -16.66 11 -17 11 Z M-9 11 C-10.35618499 12.12534105 -10.35618499 12.12534105 -10.0625 15.0625 C-10.041875 16.031875 -10.02125 17.00125 -10 18 C-6.95086772 19.01111093 -6.95086772 19.01111093 -4 18 C-3.16507646 15.57540213 -3.16507646 15.57540213 -3 13 C-3.66 12.34 -4.32 11.68 -5 11 C-6.32 11 -7.64 11 -9 11 Z M2 11 C2 13.64 2 16.28 2 19 C2.33 19 2.66 19 3 19 C3 16.36 3 13.72 3 11 C2.67 11 2.34 11 2 11 Z M-15 20 C-15 20.66 -15 21.32 -15 22 C-14.34 21.67 -13.68 21.34 -13 21 C-13.66 20.67 -14.32 20.34 -15 20 Z M-9 24 C-5 25 -5 25 -5 25 Z " fill="#000000" transform="translate(73,0)"/>
<path d="M0 0 C5.28 0 10.56 0 16 0 C16 1.98 16 3.96 16 6 C13.52076199 6.02685095 11.0418116 6.04676547 8.5625 6.0625 C7.85544922 6.07087891 7.14839844 6.07925781 6.41992188 6.08789062 C4.61306441 6.09653588 2.80612397 6.05220011 1 6 C0.67 5.67 0.34 5.34 0 5 C0 3.35 0 1.7 0 0 Z " fill="#000000" transform="translate(58,58)"/>
<path d="M0 0 C0 1.98 0 3.96 0 6 C-3.75 7.125 -3.75 7.125 -6 6 C-6 4.02 -6 2.04 -6 0 C-3.50907189 -1.24546405 -2.58919267 -0.7767578 0 0 Z " fill="#000000" transform="translate(69,119)"/>
<path d="" fill="#000000" transform="translate(0,0)"/>
<path d="M0 0 C2 1 2 1 2 1 Z " fill="#000000" transform="translate(87,48)"/>
<path d="M0 0 C2 1 2 1 2 1 Z " fill="#000000" transform="translate(43,48)"/>
<path d="" fill="#000000" transform="translate(0,0)"/>
<path d="" fill="#000000" transform="translate(0,0)"/>
<path d="" fill="#000000" transform="translate(0,0)"/>
<path d="" fill="#000000" transform="translate(0,0)"/>
<path d="" fill="#000000" transform="translate(0,0)"/>
<path d="" fill="#000000" transform="translate(0,0)"/>
<path d="" fill="#000000" transform="translate(0,0)"/>
<path d="" fill="#000000" transform="translate(0,0)"/>
<path d="" fill="#000000" transform="translate(0,0)"/>
<path d="" fill="#000000" transform="translate(0,0)"/>
<path d="" fill="#000000" transform="translate(0,0)"/>
<path d="" fill="#000000" transform="translate(0,0)"/>
<path d="" fill="#000000" transform="translate(0,0)"/>
<path d="" fill="#000000" transform="translate(0,0)"/>
<path d="" fill="#000000" transform="translate(0,0)"/>
<path d="" fill="#000000" transform="translate(0,0)"/>
<path d="" fill="#000000" transform="translate(0,0)"/>
<path d="" fill="#000000" transform="translate(0,0)"/>
<path d="" fill="#000000" transform="translate(0,0)"/>
<path d="" fill="#000000" transform="translate(0,0)"/>
<path d="" fill="#000000" transform="translate(0,0)"/>
<path d="" fill="#000000" transform="translate(0,0)"/>
<path d="" fill="#000000" transform="translate(0,0)"/>
<path d="" fill="#000000" transform="translate(0,0)"/>
<path d="" fill="#000000" transform="translate(0,0)"/>
<path d="" fill="#000000" transform="translate(0,0)"/>
<path d="" fill="#000000" transform="translate(0,0)"/>
<path d="" fill="#000000" transform="translate(0,0)"/>
<path d="" fill="#000000" transform="translate(0,0)"/>
<path d="" fill="#000000" transform="translate(0,0)"/>
<path d="" fill="#000000" transform="translate(0,0)"/>
<path d="" fill="#000000" transform="translate(0,0)"/>
<path d="" fill="#000000" transform="translate(0,0)"/>
<path d="" fill="#000000" transform="translate(0,0)"/>
<path d="" fill="#000000" transform="translate(0,0)"/>
<path d="" fill="#000000" transform="translate(0,0)"/>
<path d="" fill="#000000" transform="translate(0,0)"/>
<path d="" fill="#000000" transform="translate(0,0)"/>
<path d="" fill="#000000" transform="translate(0,0)"/>
<path d="" fill="#000000" transform="translate(0,0)"/>
<path d="" fill="#000000" transform="translate(0,0)"/>
<path d="" fill="#000000" transform="translate(0,0)"/>
<path d="" fill="#000000" transform="translate(0,0)"/>
<path d="" fill="#000000" transform="translate(0,0)"/>
<path d="" fill="#000000" transform="translate(0,0)"/>
<path d="" fill="#000000" transform="translate(0,0)"/>
<path d="" fill="#000000" transform="translate(0,0)"/>
<path d="" fill="#000000" transform="translate(0,0)"/>
<path d="" fill="#000000" transform="translate(0,0)"/>
<path d="" fill="#000000" transform="translate(0,0)"/>
<path d="" fill="#000000" transform="translate(0,0)"/>
<path d="" fill="#000000" transform="translate(0,0)"/>
<path d="" fill="#000000" transform="translate(0,0)"/>
<path d="" fill="#000000" transform="translate(0,0)"/>
<path d="" fill="#000000" transform="translate(0,0)"/>
<path d="" fill="#000000" transform="translate(0,0)"/>
<path d="" fill="#000000" transform="translate(0,0)"/>
<path d="" fill="#000000" transform="translate(0,0)"/>
<path d="" fill="#000000" transform="translate(0,0)"/>
<path d="" fill="#000000" transform="translate(0,0)"/>
<path d="" fill="#000000" transform="translate(0,0)"/>
<path d="" fill="#000000" transform="translate(0,0)"/>
<path d="" fill="#000000" transform="translate(0,0)"/>
<path d="" fill="#000000" transform="translate(0,0)"/>
<path d="" fill="#000000" transform="translate(0,0)"/>
<path d="" fill="#000000" transform="translate(0,0)"/>
<path d="" fill="#000000" transform="translate(0,0)"/>
<path d="" fill="#000000" transform="translate(0,0)"/>
<path d="" fill="#000000" transform="translate(0,0)"/>
<path d="" fill="#000000" transform="translate(0,0)"/>
<path d="" fill="#000000" transform="translate(0,0)"/>
<path d="" fill="#000000" transform="translate(0,0)"/>
<path d="" fill="#000000" transform="translate(0,0)"/>
<path d="" fill="#000000" transform="translate(0,0)"/>
<path d="" fill="#000000" transform="translate(0,0)"/>
<path d="" fill="#000000" transform="translate(0,0)"/>
<path d="" fill="#000000" transform="translate(0,0)"/>
<path d="" fill="#000000" transform="translate(0,0)"/>
<path d="" fill="#000000" transform="translate(0,0)"/>
<path d="" fill="#000000" transform="translate(0,0)"/>
<path d="" fill="#000000" transform="translate(0,0)"/>
<path d="" fill="#000000" transform="translate(0,0)"/>
</svg>
