<?xml version="1.0" encoding="UTF-8"?>
<svg version="1.1" xmlns="http://www.w3.org/2000/svg" width="93" height="66">
<path d="M0 0 C1.10537109 0.01933594 2.21074219 0.03867188 3.34960938 0.05859375 C4.48333984 0.10886719 5.61707031 0.15914063 6.78515625 0.2109375 C8.52635742 0.25154297 8.52635742 0.25154297 10.30273438 0.29296875 C13.152979 0.36334516 15.99933344 0.46175126 18.84765625 0.5859375 C19.34265625 2.5659375 19.34265625 2.5659375 19.84765625 4.5859375 C17.16552815 5.92700155 14.96367593 5.80044169 11.96484375 5.90234375 C10.79824219 5.94423828 9.63164062 5.98613281 8.4296875 6.02929688 C7.20636719 6.06861328 5.98304687 6.10792969 4.72265625 6.1484375 C3.49160156 6.19162109 2.26054687 6.23480469 0.9921875 6.27929688 C-2.05587228 6.38562454 -5.10401565 6.48765531 -8.15234375 6.5859375 C-8.15234375 9.5559375 -8.15234375 12.5259375 -8.15234375 15.5859375 C-5.51234375 16.9059375 -2.87234375 18.2259375 -0.15234375 19.5859375 C-0.15234375 29.8159375 -0.15234375 40.0459375 -0.15234375 50.5859375 C14.03765625 50.5859375 28.22765625 50.5859375 42.84765625 50.5859375 C42.84765625 51.9059375 42.84765625 53.2259375 42.84765625 54.5859375 C28.65765625 54.5859375 14.46765625 54.5859375 -0.15234375 54.5859375 C-0.15234375 56.5659375 -0.15234375 58.5459375 -0.15234375 60.5859375 C-1.47234375 60.5859375 -2.79234375 60.5859375 -4.15234375 60.5859375 C-4.15234375 48.0459375 -4.15234375 35.5059375 -4.15234375 22.5859375 C-5.47234375 22.2559375 -6.79234375 21.9259375 -8.15234375 21.5859375 C-8.48234375 34.4559375 -8.81234375 47.3259375 -9.15234375 60.5859375 C-10.47234375 60.5859375 -11.79234375 60.5859375 -13.15234375 60.5859375 C-13.330013 53.00572803 -13.45249425 45.42605634 -13.53686523 37.84423828 C-13.57204048 35.26590917 -13.61978948 32.68771941 -13.68041992 30.10986328 C-13.76545897 26.40101746 -13.80506383 22.69401871 -13.8359375 18.984375 C-13.8720665 17.83415863 -13.9081955 16.68394226 -13.94541931 15.49887085 C-13.94919597 7.77960036 -13.94919597 7.77960036 -11.76368713 4.50576782 C-8.13230754 1.10306973 -5.04115659 -0.15671989 0 0 Z " fill="#000000" transform="translate(13.15234375,5.4140625)"/>
<path d="M0 0 C1.32 0 2.64 0 4 0 C4.495 2.475 4.495 2.475 5 5 C5.61875 3.7625 5.61875 3.7625 6.25 2.5 C7.11625 1.2625 7.11625 1.2625 8 0 C9.32 0 10.64 0 12 0 C12.10143412 7.59876096 12.17148021 15.19734727 12.21972656 22.79663086 C12.23983972 25.38165817 12.26713386 27.96664 12.30175781 30.55151367 C12.35028654 34.26752955 12.37297235 37.98294378 12.390625 41.69921875 C12.41127014 42.85459641 12.43191528 44.00997406 12.45318604 45.20036316 C12.45542377 53.20506641 12.45542377 53.20506641 10.16308594 57.20629883 C6.44028497 60.2933664 3.25012592 60.11877885 -1.41796875 60.09765625 C-2.67158203 60.09443359 -3.92519531 60.09121094 -5.21679688 60.08789062 C-6.52712891 60.07951172 -7.83746094 60.07113281 -9.1875 60.0625 C-10.52278481 60.05748317 -11.85807141 60.05292059 -13.19335938 60.04882812 C-16.46228473 60.03702695 -19.73111991 60.02056297 -23 60 C-23 58.68 -23 57.36 -23 56 C-21.84999512 55.970271 -21.84999512 55.970271 -20.67675781 55.93994141 C-17.20082781 55.84464554 -13.72549494 55.73498402 -10.25 55.625 C-8.44015625 55.57859375 -8.44015625 55.57859375 -6.59375 55.53125 C-5.43359375 55.49257813 -4.2734375 55.45390625 -3.078125 55.4140625 C-1.47565918 55.36693115 -1.47565918 55.36693115 0.15917969 55.31884766 C3.31456161 55.12993659 3.31456161 55.12993659 7 53 C7.33 38.48 7.66 23.96 8 9 C6.02 9.66 4.04 10.32 2 11 C-0.45440674 11.24723816 -0.45440674 11.24723816 -2.87207031 11.24291992 C-4.24313934 11.24753487 -4.24313934 11.24753487 -5.64190674 11.25224304 C-6.61085876 11.24505753 -7.57981079 11.23787201 -8.578125 11.23046875 C-10.08980255 11.22978142 -10.08980255 11.22978142 -11.63201904 11.2290802 C-13.75338932 11.22606858 -15.8747576 11.21821508 -17.99609375 11.20581055 C-21.25268322 11.1874849 -24.5089892 11.1853015 -27.765625 11.18554688 C-29.82812747 11.18063387 -31.89062801 11.1748065 -33.953125 11.16796875 C-34.93017395 11.16685593 -35.9072229 11.1657431 -36.91387939 11.16459656 C-37.81531677 11.15821671 -38.71675415 11.15183685 -39.64550781 11.14526367 C-40.44015442 11.14145187 -41.23480103 11.13764008 -42.05352783 11.13371277 C-44 11 -44 11 -46 10 C-46 8.68 -46 7.36 -46 6 C-30.82 6 -15.64 6 0 6 C0 4.02 0 2.04 0 0 Z " fill="#000000" transform="translate(81,0)"/>
<path d="M0 0 C1.423125 0.495 1.423125 0.495 2.875 1 C5.77062452 2.10159191 5.77062452 2.10159191 8 2 C8.33 1.34 8.66 0.68 9 0 C11.6635969 0.35994553 13.58183452 0.71161002 15.8125 2.25 C17.39364795 4.58011277 17.22337696 6.24501755 17 9 C13.51943975 10.6435979 11.65529044 11.29703854 8 10 C7.2575 9.814375 6.515 9.62875 5.75 9.4375 C4.88375 9.2209375 4.88375 9.2209375 4 9 C3.67 9.66 3.34 10.32 3 11 C1.68 11 0.36 11 -1 11 C-1.02688151 9.35425434 -1.04634123 7.70838587 -1.0625 6.0625 C-1.07410156 5.14597656 -1.08570313 4.22945312 -1.09765625 3.28515625 C-1 1 -1 1 0 0 Z " fill="#000000" transform="translate(35,40)"/>
<path d="M0 0 C2.9375 2 2.9375 2 5 4 C3.6104538 7.35806998 2.27054981 9.32052848 -1 11 C-4.53323032 10.87602701 -7.01800145 10.64443655 -10 8.6875 C-11 7 -11 7 -10.875 5 C-8.53960922 -0.33803606 -5.67900703 -0.6853974 0 0 Z M-5 4 C-5.33 4.66 -5.66 5.32 -6 6 C-4.35 6 -2.7 6 -1 6 C-1.33 5.34 -1.66 4.68 -2 4 C-2.99 4 -3.98 4 -5 4 Z " fill="#000000" transform="translate(63,16)"/>
<path d="M0 0 C2.25 0.0625 2.25 0.0625 5 1 C6.80624384 3.13159211 8.15034876 5.33518475 9 8 C8.6015625 10.23046875 8.6015625 10.23046875 8 12 C6.56359829 12.19573608 5.12580496 12.38127816 3.6875 12.5625 C2.88699219 12.66691406 2.08648437 12.77132812 1.26171875 12.87890625 C-1 13 -1 13 -4 12 C-4.83984375 10.203125 -4.83984375 10.203125 -5 8 C-4.00390625 5.859375 -4.00390625 5.859375 -2.5625 3.75 C-2.08941406 3.04359375 -1.61632813 2.3371875 -1.12890625 1.609375 C-0.75636719 1.07828125 -0.38382813 0.5471875 0 0 Z M1 6 C1 6.66 1 7.32 1 8 C1.66 8 2.32 8 3 8 C3 7.34 3 6.68 3 6 C2.34 6 1.68 6 1 6 Z " fill="#000000" transform="translate(59,39)"/>
<path d="M0 0 C2.25 0.125 2.25 0.125 5 1 C7.375 3.75 7.375 3.75 9 7 C8.67 8.65 8.34 10.3 8 12 C4.37 12 0.74 12 -3 12 C-4.25187763 5.74061187 -3.27679547 5.06413846 0 0 Z M2 5 C1.67 5.99 1.34 6.98 1 8 C1.99 7.67 2.98 7.34 4 7 C3.34 6.34 2.68 5.68 2 5 Z " fill="#000000" transform="translate(74,39)"/>
<path d="M0 0 C3.375 0.3125 3.375 0.3125 7 1 C9.16551116 4.24826674 9.55156953 5.23094157 9 9 C7.3125 11.3125 7.3125 11.3125 5 13 C2.25 13.25 2.25 13.25 0 13 C-1.18306728 10.63386544 -1.13354608 9.13219264 -1.125 6.5 C-1.12757812 5.7059375 -1.13015625 4.911875 -1.1328125 4.09375 C-1 2 -1 2 0 0 Z " fill="#000000" transform="translate(34,26)"/>
<path d="M0 0 C1.3303125 0.02126953 1.3303125 0.02126953 2.6875 0.04296875 C4.0178125 0.05263672 4.0178125 0.05263672 5.375 0.0625 C7.6875 0.23046875 7.6875 0.23046875 9.6875 1.23046875 C9.6875 3.54046875 9.6875 5.85046875 9.6875 8.23046875 C8.3675 8.56046875 7.0475 8.89046875 5.6875 9.23046875 C5.3575 7.91046875 5.0275 6.59046875 4.6875 5.23046875 C3.3675 5.23046875 2.0475 5.23046875 0.6875 5.23046875 C0.3575 6.55046875 0.0275 7.87046875 -0.3125 9.23046875 C-1.3025 9.23046875 -2.2925 9.23046875 -3.3125 9.23046875 C-4.3125 8.23046875 -4.3125 8.23046875 -4.5 5.29296875 C-4.27541862 1.62480619 -3.78023169 0.37674606 0 0 Z " fill="#000000" transform="translate(22.3125,15.76953125)"/>
<path d="M0 0 C3.5 0.9375 3.5 0.9375 5.5 2.75 C6.5 4.9375 6.5 4.9375 6.375 7.125 C5.941875 8.0221875 5.941875 8.0221875 5.5 8.9375 C1.97005387 10.11414871 -0.79455413 10.13600603 -4.5 9.9375 C-5.49 9.2775 -6.48 8.6175 -7.5 7.9375 C-7.14780657 5.33126858 -6.73526531 3.32960885 -5.375 1.0625 C-3.5 -0.0625 -3.5 -0.0625 0 0 Z " fill="#000000" transform="translate(25.5,42.0625)"/>
<path d="M0 0 C1.32 0.33 2.64 0.66 4 1 C4 1.66 4 2.32 4 3 C5.98 3 7.96 3 10 3 C10.33 4.32 10.66 5.64 11 7 C8.26922124 8.36538938 6.04439633 8.13231826 3 8.125 C1.39125 8.12886719 1.39125 8.12886719 -0.25 8.1328125 C-3 8 -3 8 -5 7 C-5 5.68 -5 4.36 -5 3 C-3.35 3 -1.7 3 0 3 C0 2.01 0 1.02 0 0 Z " fill="#000000" transform="translate(39,15)"/>
<path d="M0 0 C7.42608696 -0.48695652 7.42608696 -0.48695652 10.0625 1.75 C11.14715729 4.3531775 11.01560704 5.41481845 10 8 C9.38125 7.814375 8.7625 7.62875 8.125 7.4375 C5.95839822 6.76313824 5.95839822 6.76313824 4 8 C1.6505947 7.39239518 -0.68529088 6.72870472 -3 6 C-2.01 4.02 -1.02 2.04 0 0 Z " fill="#000000" transform="translate(72,16)"/>
<path d="M0 0 C3.5376754 -0.1628764 5.43854208 -0.15371871 8.12109375 2.27734375 C9.12109375 4.46484375 9.12109375 4.46484375 9.12109375 7.46484375 C4.83109375 7.46484375 0.54109375 7.46484375 -3.87890625 7.46484375 C-4.20890625 6.80484375 -4.53890625 6.14484375 -4.87890625 5.46484375 C-3.85059805 2.5855808 -3.11441198 0.77050941 0 0 Z " fill="#000000" transform="translate(73.87890625,23.53515625)"/>
<path d="M0 0 C2.125 0.375 2.125 0.375 4 1 C2.49939297 4.81972698 0.51662697 6.89002382 -3 9 C-6.8125 8.75 -6.8125 8.75 -10 8 C-9.67 6.68 -9.34 5.36 -9 4 C-7.88625 3.71125 -6.7725 3.4225 -5.625 3.125 C-1.99708908 2.30758671 -1.99708908 2.30758671 0 0 Z " fill="#000000" transform="translate(28,31)"/>
<path d="M0 0 C2.7074495 0.28008098 4.05757563 1.04318172 6.25 2.6875 C8.47194463 5.62364112 8.32693436 7.40372208 8 11 C6.68 11.33 5.36 11.66 4 12 C3.54625 10.9275 3.0925 9.855 2.625 8.75 C1.49911463 6.11937683 0.32079794 3.53999604 -1 1 C-0.67 0.67 -0.34 0.34 0 0 Z " fill="#000000" transform="translate(45,27)"/>
<path d="M0 0 C1.60332791 -0.08121924 3.20784026 -0.13929134 4.8125 -0.1875 C6.15248047 -0.23970703 6.15248047 -0.23970703 7.51953125 -0.29296875 C10 0 10 0 11.84375 1.375 C13 3 13 3 12.6875 5.1875 C12.3471875 6.0846875 12.3471875 6.0846875 12 7 C11.484375 6.690625 10.96875 6.38125 10.4375 6.0625 C7.33334577 4.70940713 4.34884993 4.38640576 1 4 C0.67 2.68 0.34 1.36 0 0 Z " fill="#000000" transform="translate(55,31)"/>
<path d="M0 0 C1.65 0 3.3 0 5 0 C5.33 1.32 5.66 2.64 6 4 C1.25 5.125 1.25 5.125 -1 4 C-0.67 2.68 -0.34 1.36 0 0 Z " fill="#000000" transform="translate(19,29)"/>
<path d="M0 0 C1.32 0.33 2.64 0.66 4 1 C4 1.99 4 2.98 4 4 C2.68 4 1.36 4 0 4 C0 2.68 0 1.36 0 0 Z " fill="#000000" transform="translate(77,32)"/>
<path d="M0 0 C1.32 0.33 2.64 0.66 4 1 C4 1.99 4 2.98 4 4 C2.68 4 1.36 4 0 4 C0 2.68 0 1.36 0 0 Z " fill="#000000" transform="translate(72,32)"/>
<path d="M0 0 C0.99 0.495 0.99 0.495 2 1 C1.01 1.495 1.01 1.495 0 2 C0 1.34 0 0.68 0 0 Z " fill="#000000" transform="translate(33,5)"/>
<path d="M0 0 C2 1 2 1 2 1 Z " fill="#000000" transform="translate(56,60)"/>
<path d="M0 0 C2 1 2 1 2 1 Z " fill="#000000" transform="translate(90,58)"/>
<path d="M0 0 C2 1 2 1 2 1 Z " fill="#000000" transform="translate(56,55)"/>
<path d="M0 0 C2 1 2 1 2 1 Z " fill="#000000" transform="translate(32,51)"/>
<path d="M0 0 C2 1 2 1 2 1 Z " fill="#000000" transform="translate(32,25)"/>
<path d="M0 0 C2 1 2 1 2 1 Z " fill="#000000" transform="translate(50,18)"/>
<path d="M0 0 C2 1 2 1 2 1 Z " fill="#000000" transform="translate(33,10)"/>
<path d="" fill="#000000" transform="translate(0,0)"/>
<path d="" fill="#000000" transform="translate(0,0)"/>
<path d="" fill="#000000" transform="translate(0,0)"/>
<path d="" fill="#000000" transform="translate(0,0)"/>
<path d="" fill="#000000" transform="translate(0,0)"/>
<path d="" fill="#000000" transform="translate(0,0)"/>
<path d="" fill="#000000" transform="translate(0,0)"/>
<path d="" fill="#000000" transform="translate(0,0)"/>
<path d="" fill="#000000" transform="translate(0,0)"/>
<path d="" fill="#000000" transform="translate(0,0)"/>
<path d="" fill="#000000" transform="translate(0,0)"/>
<path d="" fill="#000000" transform="translate(0,0)"/>
<path d="" fill="#000000" transform="translate(0,0)"/>
<path d="" fill="#000000" transform="translate(0,0)"/>
<path d="" fill="#000000" transform="translate(0,0)"/>
<path d="" fill="#000000" transform="translate(0,0)"/>
<path d="" fill="#000000" transform="translate(0,0)"/>
<path d="" fill="#000000" transform="translate(0,0)"/>
<path d="" fill="#000000" transform="translate(0,0)"/>
<path d="" fill="#000000" transform="translate(0,0)"/>
<path d="" fill="#000000" transform="translate(0,0)"/>
<path d="" fill="#000000" transform="translate(0,0)"/>
<path d="" fill="#000000" transform="translate(0,0)"/>
<path d="" fill="#000000" transform="translate(0,0)"/>
<path d="" fill="#000000" transform="translate(0,0)"/>
<path d="" fill="#000000" transform="translate(0,0)"/>
<path d="" fill="#000000" transform="translate(0,0)"/>
<path d="" fill="#000000" transform="translate(0,0)"/>
<path d="" fill="#000000" transform="translate(0,0)"/>
<path d="" fill="#000000" transform="translate(0,0)"/>
<path d="" fill="#000000" transform="translate(0,0)"/>
<path d="" fill="#000000" transform="translate(0,0)"/>
<path d="" fill="#000000" transform="translate(0,0)"/>
<path d="" fill="#000000" transform="translate(0,0)"/>
<path d="" fill="#000000" transform="translate(0,0)"/>
<path d="" fill="#000000" transform="translate(0,0)"/>
<path d="" fill="#000000" transform="translate(0,0)"/>
<path d="" fill="#000000" transform="translate(0,0)"/>
<path d="" fill="#000000" transform="translate(0,0)"/>
<path d="" fill="#000000" transform="translate(0,0)"/>
<path d="" fill="#000000" transform="translate(0,0)"/>
<path d="" fill="#000000" transform="translate(0,0)"/>
<path d="" fill="#000000" transform="translate(0,0)"/>
<path d="" fill="#000000" transform="translate(0,0)"/>
<path d="" fill="#000000" transform="translate(0,0)"/>
<path d="" fill="#000000" transform="translate(0,0)"/>
<path d="" fill="#000000" transform="translate(0,0)"/>
<path d="" fill="#000000" transform="translate(0,0)"/>
<path d="" fill="#000000" transform="translate(0,0)"/>
<path d="" fill="#000000" transform="translate(0,0)"/>
<path d="" fill="#000000" transform="translate(0,0)"/>
<path d="" fill="#000000" transform="translate(0,0)"/>
<path d="" fill="#000000" transform="translate(0,0)"/>
<path d="" fill="#000000" transform="translate(0,0)"/>
<path d="" fill="#000000" transform="translate(0,0)"/>
<path d="" fill="#000000" transform="translate(0,0)"/>
<path d="" fill="#000000" transform="translate(0,0)"/>
<path d="" fill="#000000" transform="translate(0,0)"/>
<path d="" fill="#000000" transform="translate(0,0)"/>
<path d="" fill="#000000" transform="translate(0,0)"/>
<path d="" fill="#000000" transform="translate(0,0)"/>
<path d="" fill="#000000" transform="translate(0,0)"/>
<path d="" fill="#000000" transform="translate(0,0)"/>
<path d="" fill="#000000" transform="translate(0,0)"/>
<path d="" fill="#000000" transform="translate(0,0)"/>
<path d="" fill="#000000" transform="translate(0,0)"/>
<path d="" fill="#000000" transform="translate(0,0)"/>
<path d="" fill="#000000" transform="translate(0,0)"/>
<path d="" fill="#000000" transform="translate(0,0)"/>
<path d="" fill="#000000" transform="translate(0,0)"/>
<path d="" fill="#000000" transform="translate(0,0)"/>
<path d="" fill="#000000" transform="translate(0,0)"/>
<path d="" fill="#000000" transform="translate(0,0)"/>
<path d="" fill="#000000" transform="translate(0,0)"/>
<path d="" fill="#000000" transform="translate(0,0)"/>
<path d="" fill="#000000" transform="translate(0,0)"/>
<path d="" fill="#000000" transform="translate(0,0)"/>
<path d="" fill="#000000" transform="translate(0,0)"/>
<path d="" fill="#000000" transform="translate(0,0)"/>
<path d="" fill="#000000" transform="translate(0,0)"/>
<path d="" fill="#000000" transform="translate(0,0)"/>
<path d="" fill="#000000" transform="translate(0,0)"/>
<path d="" fill="#000000" transform="translate(0,0)"/>
<path d="" fill="#000000" transform="translate(0,0)"/>
<path d="" fill="#000000" transform="translate(0,0)"/>
<path d="" fill="#000000" transform="translate(0,0)"/>
<path d="" fill="#000000" transform="translate(0,0)"/>
<path d="" fill="#000000" transform="translate(0,0)"/>
<path d="" fill="#000000" transform="translate(0,0)"/>
<path d="" fill="#000000" transform="translate(0,0)"/>
<path d="" fill="#000000" transform="translate(0,0)"/>
<path d="" fill="#000000" transform="translate(0,0)"/>
<path d="" fill="#000000" transform="translate(0,0)"/>
<path d="" fill="#000000" transform="translate(0,0)"/>
<path d="" fill="#000000" transform="translate(0,0)"/>
<path d="" fill="#000000" transform="translate(0,0)"/>
<path d="" fill="#000000" transform="translate(0,0)"/>
<path d="" fill="#000000" transform="translate(0,0)"/>
<path d="" fill="#000000" transform="translate(0,0)"/>
<path d="" fill="#000000" transform="translate(0,0)"/>
<path d="" fill="#000000" transform="translate(0,0)"/>
<path d="" fill="#000000" transform="translate(0,0)"/>
<path d="" fill="#000000" transform="translate(0,0)"/>
<path d="" fill="#000000" transform="translate(0,0)"/>
<path d="" fill="#000000" transform="translate(0,0)"/>
<path d="" fill="#000000" transform="translate(0,0)"/>
<path d="" fill="#000000" transform="translate(0,0)"/>
<path d="" fill="#000000" transform="translate(0,0)"/>
</svg>
