<?xml version="1.0" encoding="UTF-8"?>
<svg version="1.1" xmlns="http://www.w3.org/2000/svg" width="81" height="72">
<path d="M0 0 C0.66 2.64 1.32 5.28 2 8 C3.9451 5.08235 4.45276317 3.37462715 5 0 C11.25949852 -0.68285438 14.52579042 0.42617946 19.7265625 3.90625 C27.00544998 10.60983022 29.93900317 18.26464008 32.9375 27.5625 C33.55334961 29.35204102 33.55334961 29.35204102 34.18164062 31.17773438 C37.80209633 42.16120791 37.80209633 42.16120791 36 48 C35.34 48.99 34.68 49.98 34 51 C34.639375 51.763125 35.27875 52.52625 35.9375 53.3125 C39.14570192 57.49288431 39.11333135 60.55353401 39.0625 65.6875 C39.05347656 66.86699219 39.04445313 68.04648438 39.03515625 69.26171875 C39.02355469 70.16535156 39.01195313 71.06898437 39 72 C37.35 72 35.7 72 34 72 C33.94392578 70.55367187 33.94392578 70.55367187 33.88671875 69.078125 C33.82097656 67.81484375 33.75523438 66.5515625 33.6875 65.25 C33.62949219 63.99703125 33.57148437 62.7440625 33.51171875 61.453125 C32.99541086 57.96903205 32.49219966 56.43681745 30 54 C29.34 54 28.68 54 28 54 C27.90912109 55.69769531 27.90912109 55.69769531 27.81640625 57.4296875 C27.73200083 58.91147145 27.64735283 60.3932416 27.5625 61.875 C27.52318359 62.62136719 27.48386719 63.36773437 27.44335938 64.13671875 C27.11328125 69.7734375 27.11328125 69.7734375 26 72 C21.05 72 16.1 72 11 72 C10.34 70.02 9.68 68.04 9 66 C8.484375 66.680625 7.96875 67.36125 7.4375 68.0625 C5 70 5 70 1.375 69.9375 C-2 69 -2 69 -4 66 C-4.66 67.98 -5.32 69.96 -6 72 C-10.95 72 -15.9 72 -21 72 C-22.585869 68.828262 -22.37866445 65.36486178 -22.5625 61.875 C-22.62727539 60.74384766 -22.62727539 60.74384766 -22.69335938 59.58984375 C-22.7994832 57.72678112 -22.90025001 55.86341476 -23 54 C-26.12197478 55.3089572 -26.12197478 55.3089572 -28 58 C-28.23029956 60.37123246 -28.41119942 62.74741943 -28.5625 65.125 C-28.64628906 66.40632813 -28.73007812 67.68765625 -28.81640625 69.0078125 C-28.87699219 69.99523437 -28.93757813 70.98265625 -29 72 C-30.65 72 -32.3 72 -34 72 C-34.55309973 58.19299191 -34.55309973 58.19299191 -31 53 C-30.34 52.01 -29.68 51.02 -29 50 C-29.515625 49.505 -30.03125 49.01 -30.5625 48.5 C-32.64003994 44.88688706 -31.82538242 41.91665519 -31 38 C-29.7845488 33.6091599 -28.35057322 29.30945557 -26.875 25 C-26.50890625 23.86304687 -26.1428125 22.72609375 -25.765625 21.5546875 C-22.88556533 13.11043092 -19.15124286 6.48269202 -11.5625 1.5 C-7.27112476 -0.30689484 -4.59971334 -0.3227869 0 0 Z M9 4 C9 8.95 9 13.9 9 19 C10.32 19 11.64 19 13 19 C13 14.38 13 9.76 13 5 C11.68 4.67 10.36 4.34 9 4 Z M-8 5 C-8 9.62 -8 14.24 -8 19 C-6.68 19 -5.36 19 -4 19 C-4 14.05 -4 9.1 -4 4 C-5.36893239 3.94729537 -5.36893239 3.94729537 -8 5 Z M-18 14 C-18 14.66 -18 15.32 -18 16 C-17.34 16 -16.68 16 -16 16 C-16 15.34 -16 14.68 -16 14 C-16.66 14 -17.32 14 -18 14 Z M21 14 C21.66 14.66 22.32 15.32 23 16 C23 15.34 23 14.68 23 14 C22.34 14 21.68 14 21 14 Z M1 15 C0.67 16.32 0.34 17.64 0 19 C1.65 19 3.3 19 5 19 C4.67 17.68 4.34 16.36 4 15 C3.01 15 2.02 15 1 15 Z M-20 20 C-20.33 21.32 -20.66 22.64 -21 24 C-18.36 24 -15.72 24 -13 24 C-13 22.68 -13 21.36 -13 20 C-15.31 20 -17.62 20 -20 20 Z M18 20 C18 21.32 18 22.64 18 24 C20.64 24 23.28 24 26 24 C25.67 22.68 25.34 21.36 25 20 C22.69 20 20.38 20 18 20 Z M-8 23 C-8.40910129 31.25596339 -8.40910129 31.25596339 -6.125 38 C-5.60292969 39.0828125 -5.60292969 39.0828125 -5.0703125 40.1875 C-4.00836884 42.15784607 -4.00836884 42.15784607 -2 44 C1.05686235 44.56062147 3.93972897 44.52913777 7 44 C10.53114161 40.92156885 11.97588924 37.52315586 13 33 C13 29.7 13 26.4 13 23 C6.07 23 -0.86 23 -8 23 Z M-23 29 C-23.33 30.32 -23.66 31.64 -24 33 C-20.04 33 -16.08 33 -12 33 C-12.33 31.68 -12.66 30.36 -13 29 C-16.3 29 -19.6 29 -23 29 Z M18 29 C17.67 30.32 17.34 31.64 17 33 C20.96 33 24.92 33 29 33 C28.67 31.68 28.34 30.36 28 29 C24.7 29 21.4 29 18 29 Z M-26 37 C-26.33 38.32 -26.66 39.64 -27 41 C-21.39 41 -15.78 41 -10 41 C-10.33 39.68 -10.66 38.36 -11 37 C-15.95 37 -20.9 37 -26 37 Z M16 37 C15.30533974 40.47330128 14.87988184 42.91302863 14.9375 46.3125 C14.958125 47.529375 14.97875 48.74625 15 50 C22.44284678 50.62020813 22.44284678 50.62020813 29.1875 48 C29.785625 47.34 30.38375 46.68 31 46 C28.36 45.67 25.72 45.34 23 45 C23 44.01 23 43.02 23 42 C27.455 41.505 27.455 41.505 32 41 C31.67 39.68 31.34 38.36 31 37 C26.05 37 21.1 37 16 37 Z M-26 46 C-20.94774058 50.22682546 -20.94774058 50.22682546 -15.1875 50.25 C-14.21167969 50.21390625 -13.23585938 50.1778125 -12.23046875 50.140625 C-11.49441406 50.09421875 -10.75835937 50.0478125 -10 50 C-10 48.68 -10 47.36 -10 46 C-15.28 46 -20.56 46 -26 46 Z M-5 47 C-4 50 -4 50 -4 50 Z M9 47 C10 50 10 50 10 50 Z M1 49 C1 54.28 1 59.56 1 65 C1.99 65 2.98 65 4 65 C4 59.72 4 54.44 4 49 C3.01 49 2.02 49 1 49 Z M-17 54 C-17 55.32 -17 56.64 -17 58 C-14.69 58 -12.38 58 -10 58 C-10 56.68 -10 55.36 -10 54 C-12.31 54 -14.62 54 -17 54 Z M15 54 C15 55.32 15 56.64 15 58 C17.31 58 19.62 58 22 58 C22 56.68 22 55.36 22 54 C19.69 54 17.38 54 15 54 Z M-17 63 C-17 64.32 -17 65.64 -17 67 C-14.69 67 -12.38 67 -10 67 C-10 65.68 -10 64.36 -10 63 C-12.31 63 -14.62 63 -17 63 Z M15 63 C15 64.32 15 65.64 15 67 C17.31 67 19.62 67 22 67 C22 65.68 22 64.36 22 63 C19.69 63 17.38 63 15 63 Z " fill="#1E1E1E" transform="translate(38,0)"/>
<path d="M0 0 C0.99 0.33 1.98 0.66 3 1 C2.67 2.32 2.34 3.64 2 5 C1.01 4.67 0.02 4.34 -1 4 C-0.67 2.68 -0.34 1.36 0 0 Z " fill="#373737" transform="translate(55,41)"/>
<path d="M0 0 C0.66 0.66 1.32 1.32 2 2 C1.34 2 0.68 2 0 2 C0 1.34 0 0.68 0 0 Z " fill="#FFFFFF" transform="translate(7,49)"/>
<path d="M0 0 C0.33 0.66 0.66 1.32 1 2 C0.34 1.67 -0.32 1.34 -1 1 C-0.67 0.67 -0.34 0.34 0 0 Z " fill="#FFFFFF" transform="translate(73,49)"/>
<path d="M0 0 C0.33 0.66 0.66 1.32 1 2 C0.34 1.67 -0.32 1.34 -1 1 C-0.67 0.67 -0.34 0.34 0 0 Z " fill="#FFFFFF" transform="translate(59,40)"/>
<path d="M0 0 C2 1 2 1 2 1 Z " fill="#FFFFFF" transform="translate(66,54)"/>
<path d="M0 0 C2 1 2 1 2 1 Z " fill="#FFFFFF" transform="translate(13,54)"/>
<path d="M0 0 C2 1 2 1 2 1 Z " fill="#FFFFFF" transform="translate(58,45)"/>
<path d="M0 0 C2 1 2 1 2 1 Z " fill="#FFFFFF" transform="translate(19,5)"/>
<path d="" fill="#FFFFFF" transform="translate(0,0)"/>
<path d="" fill="#FFFFFF" transform="translate(0,0)"/>
<path d="" fill="#FFFFFF" transform="translate(0,0)"/>
<path d="" fill="#FFFFFF" transform="translate(0,0)"/>
<path d="" fill="#FFFFFF" transform="translate(0,0)"/>
<path d="" fill="#FFFFFF" transform="translate(0,0)"/>
<path d="" fill="#FFFFFF" transform="translate(0,0)"/>
<path d="" fill="#FFFFFF" transform="translate(0,0)"/>
<path d="" fill="#FFFFFF" transform="translate(0,0)"/>
<path d="" fill="#FFFFFF" transform="translate(0,0)"/>
<path d="" fill="#FFFFFF" transform="translate(0,0)"/>
<path d="" fill="#FFFFFF" transform="translate(0,0)"/>
<path d="" fill="#FFFFFF" transform="translate(0,0)"/>
<path d="" fill="#FFFFFF" transform="translate(0,0)"/>
<path d="" fill="#FFFFFF" transform="translate(0,0)"/>
<path d="" fill="#FFFFFF" transform="translate(0,0)"/>
<path d="" fill="#FFFFFF" transform="translate(0,0)"/>
<path d="" fill="#FFFFFF" transform="translate(0,0)"/>
<path d="" fill="#FFFFFF" transform="translate(0,0)"/>
<path d="" fill="#FFFFFF" transform="translate(0,0)"/>
<path d="" fill="#FFFFFF" transform="translate(0,0)"/>
<path d="" fill="#FFFFFF" transform="translate(0,0)"/>
<path d="" fill="#FFFFFF" transform="translate(0,0)"/>
<path d="" fill="#FFFFFF" transform="translate(0,0)"/>
<path d="" fill="#FFFFFF" transform="translate(0,0)"/>
<path d="" fill="#FFFFFF" transform="translate(0,0)"/>
<path d="" fill="#FFFFFF" transform="translate(0,0)"/>
<path d="" fill="#FFFFFF" transform="translate(0,0)"/>
<path d="" fill="#FFFFFF" transform="translate(0,0)"/>
<path d="" fill="#FFFFFF" transform="translate(0,0)"/>
<path d="" fill="#FFFFFF" transform="translate(0,0)"/>
<path d="" fill="#FFFFFF" transform="translate(0,0)"/>
<path d="" fill="#FFFFFF" transform="translate(0,0)"/>
<path d="" fill="#FFFFFF" transform="translate(0,0)"/>
<path d="" fill="#FFFFFF" transform="translate(0,0)"/>
<path d="" fill="#FFFFFF" transform="translate(0,0)"/>
<path d="" fill="#FFFFFF" transform="translate(0,0)"/>
<path d="" fill="#FFFFFF" transform="translate(0,0)"/>
<path d="" fill="#FFFFFF" transform="translate(0,0)"/>
<path d="" fill="#FFFFFF" transform="translate(0,0)"/>
<path d="" fill="#FFFFFF" transform="translate(0,0)"/>
<path d="" fill="#FFFFFF" transform="translate(0,0)"/>
<path d="" fill="#FFFFFF" transform="translate(0,0)"/>
<path d="" fill="#FFFFFF" transform="translate(0,0)"/>
<path d="" fill="#FFFFFF" transform="translate(0,0)"/>
<path d="" fill="#FFFFFF" transform="translate(0,0)"/>
<path d="" fill="#FFFFFF" transform="translate(0,0)"/>
<path d="" fill="#FFFFFF" transform="translate(0,0)"/>
<path d="" fill="#FFFFFF" transform="translate(0,0)"/>
<path d="" fill="#FFFFFF" transform="translate(0,0)"/>
</svg>
